Coordinates
version=1
nRows=14
nColumns=40
inDegrees=yes

Units are S.I. units (second, meters, Newtons, ...)
If the header above contains a line with 'inDegrees', this indicates whether rotational values are in degrees (yes) or radians (no).

endheader
time	pelvis_tilt	pelvis_list	pelvis_rotation	pelvis_tx	pelvis_ty	pelvis_tz	hip_flexion_r	hip_adduction_r	hip_rotation_r	knee_angle_r	knee_angle_r_beta	ankle_angle_r	subtalar_angle_r	mtp_angle_r	hip_flexion_l	hip_adduction_l	hip_rotation_l	knee_angle_l	knee_angle_l_beta	ankle_angle_l	subtalar_angle_l	mtp_angle_l	lumbar_extension	lumbar_bending	lumbar_rotation	arm_flex_r	arm_add_r	arm_rot_r	elbow_flex_r	pro_sup_r	wrist_flex_r	wrist_dev_r	arm_flex_l	arm_add_l	arm_rot_l	elbow_flex_l	pro_sup_l	wrist_flex_l	wrist_dev_l
      1.83000000	     -2.31479992	      7.57956222	    -89.19396680	      0.17907173	      0.88314299	      1.69725616	    -13.57214554	      6.52996677	      2.58685696	      2.47955371	      0.04327638	     13.71842759	      0.00000000	      0.00000000	     33.34642846	     -0.63606718	      5.98314501	      0.98141997	      0.01712901	     -1.62624613	      0.00000000	      0.00000000	      1.06600839	     -0.34724343	      4.04035996	      0.00000000	      0.00000000	      0.00000000	      0.00000000	      0.00000000	      0.00000000	      0.00000000	      0.00000000	      0.00000000	      0.00000000	      0.00000000	      0.00000000	      0.00000000	      0.00000000
      1.84000000	     -1.91584430	      7.56415922	    -89.27045784	      0.18017177	      0.88267139	      1.71214822	    -13.73725632	      5.96261724	      2.09717938	      3.96707738	      0.06923856	     13.19378702	      0.00000000	      0.00000000	     33.26061942	     -0.14432667	      5.57514123	      1.93916931	      0.03384489	     -3.06898179	      0.00000000	      0.00000000	      1.09832900	     -0.78251717	      3.82480769	      0.00000000	      0.00000000	      0.00000000	      0.00000000	      0.00000000	      0.00000000	      0.00000000	      0.00000000	      0.00000000	      0.00000000	      0.00000000	      0.00000000	      0.00000000	      0.00000000
      1.85000000	     -1.47457662	      7.56504833	    -89.32665261	      0.18131059	      0.88252788	      1.72715496	    -13.69424001	      5.33915060	      1.46340116	      5.75722356	      0.10048251	     12.41659804	      0.00000000	      0.00000000	     33.25018284	      0.39732967	      4.89868274	      3.23289424	      0.05642465	     -4.73772028	      0.00000000	      0.00000000	      1.17628787	     -1.28549728	      3.62297521	      0.00000000	      0.00000000	      0.00000000	      0.00000000	      0.00000000	      0.00000000	      0.00000000	      0.00000000	      0.00000000	      0.00000000	      0.00000000	      0.00000000	      0.00000000	      0.00000000
      1.86000000	     -0.99872194	      7.59201891	    -89.35445691	      0.18254561	      0.88267333	      1.74228494	    -13.42404761	      4.65767869	      0.65186884	      7.85051588	      0.13701735	     11.39245285	      0.00000000	     -0.00000000	     33.29496126	      0.97445374	      4.10324592	      4.74711147	      0.08285273	     -6.48862123	     -0.00000000	     -0.00000000	      1.33005590	     -1.81356368	      3.38982798	      0.00000000	     -0.00000000	     -0.00000000	      0.00000000	      0.00000000	      0.00000000	     -0.00000000	      0.00000000	     -0.00000000	     -0.00000000	      0.00000000	      0.00000000	      0.00000000	     -0.00000000
      1.87000000	     -0.53912944	      7.59307841	    -89.38274330	      0.18379722	      0.88321718	      1.75740715	    -12.96166954	      3.95065996	     -0.25716921	     10.25767730	      0.17903024	      9.95648005	     -0.00000000	     -0.00000000	     33.31120909	      1.51497399	      3.30029901	      6.37461799	      0.11125807	     -8.02140195	     -0.00000000	     -0.00000000	      1.41950733	     -2.32797350	      3.15804619	      0.00000000	      0.00000000	      0.00000000	      0.00000000	      0.00000000	      0.00000000	     -0.00000000	      0.00000000	     -0.00000000	      0.00000000	      0.00000000	      0.00000000	      0.00000000	      0.00000000
      1.88000000	     -0.02724793	      7.64448967	    -89.39122115	      0.18513953	      0.88401531	      1.77260890	    -12.22423247	      3.13702182	     -1.34826079	     12.98598258	      0.22664815	      8.20842740	      0.00000000	      0.00000000	     33.33996252	      2.10495594	      2.55384970	      8.02342698	      0.14003522	     -9.31517078	      0.00000000	      0.00000000	      1.61659938	     -2.88763982	      2.90585854	      0.00000000	      0.00000000	      0.00000000	      0.00000000	      0.00000000	      0.00000000	      0.00000000	      0.00000000	      0.00000000	      0.00000000	      0.00000000	      0.00000000	      0.00000000	      0.00000000
      1.89000000	      0.49633896	      7.72007315	    -89.38387852	      0.18656195	      0.88509932	      1.78777584	    -11.22120288	      2.24418477	     -2.52317460	     16.05702664	      0.28024798	      6.07862923	      0.00000000	      0.00000000	     33.32726364	      2.70528867	      1.90595926	      9.60678784	      0.16767008	    -10.18637995	      0.00000000	      0.00000000	      1.84707894	     -3.46193399	      2.64550090	      0.00000000	      0.00000000	      0.00000000	      0.00000000	      0.00000000	      0.00000000	      0.00000000	      0.00000000	      0.00000000	      0.00000000	      0.00000000	      0.00000000	      0.00000000	      0.00000000
      1.90000000	      1.02797069	      7.77764632	    -89.36140987	      0.18804957	      0.88648533	      1.80288922	    -10.01602034	      1.27081864	     -3.69362075	     19.44041058	      0.33929917	      3.57914267	      0.00000000	      0.00000000	     33.20146318	      3.31928436	      1.41351919	     11.06944221	      0.19319821	    -10.56465154	      0.00000000	      0.00000000	      2.06900508	     -4.02825344	      2.36843095	      0.00000000	      0.00000000	      0.00000000	      0.00000000	      0.00000000	      0.00000000	      0.00000000	      0.00000000	      0.00000000	      0.00000000	      0.00000000	      0.00000000	      0.00000000	      0.00000000
      1.91000000	      1.55490796	      7.91922992	    -89.34991420	      0.18958774	      0.88802590	      1.81781306	     -8.46738636	      0.22433488	     -4.75621049	     23.17476844	      0.40447601	      0.83597116	     -0.00000000	      0.00000000	     33.05770789	      3.93000880	      1.03510605	     12.35120320	      0.21556916	    -10.51022739	      0.00000000	      0.00000000	      2.37603227	     -4.57802887	      2.09659526	      0.00000000	      0.00000000	      0.00000000	      0.00000000	      0.00000000	     -0.00000000	     -0.00000000	      0.00000000	      0.00000000	     -0.00000000	      0.00000000	      0.00000000	      0.00000000	      0.00000000
      1.92000000	      2.11770196	      7.96707552	    -89.33895835	      0.19113651	      0.88993750	      1.83265650	     -6.86131154	     -0.90876983	     -5.66035782	     27.07518340	      0.47255110	     -2.12321408	      0.00000000	      0.00000000	     32.67645804	      4.58063159	      0.71179454	     13.41095913	      0.23406539	    -10.03975441	      0.00000000	      0.00000000	      2.57764172	     -5.16270901	      1.83230782	      0.00000000	      0.00000000	      0.00000000	      0.00000000	      0.00000000	      0.00000000	      0.00000000	      0.00000000	      0.00000000	      0.00000000	      0.00000000	      0.00000000	      0.00000000	      0.00000000
      1.93000000	      2.69826323	      8.03685727	    -89.31738952	      0.19275570	      0.89197819	      1.84730748	     -5.05475901	     -2.09520948	     -6.36126989	     31.16919301	      0.54400504	     -5.04780063	      0.00000000	     -0.00000000	     32.17736433	      5.26467905	      0.45483795	     14.21645949	      0.24812403	     -9.28682384	      0.00000000	     -0.00000000	      2.79644388	     -5.75993994	      1.58241885	      0.00000000	      0.00000000	     -0.00000000	      0.00000000	      0.00000000	     -0.00000000	      0.00000000	      0.00000000	      0.00000000	     -0.00000000	      0.00000000	      0.00000000	      0.00000000	     -0.00000000
      1.94000000	      3.24248371	      8.20836088	    -89.30617239	      0.19438892	      0.89400987	      1.86162801	     -2.96444732	     -3.23261244	     -6.74037522	     35.39644815	      0.61778456	     -7.67543092	      0.00000000	      0.00000000	     31.66146446	      5.92343691	      0.29948267	     14.77712895	      0.25790955	     -8.35748949	      0.00000000	      0.00000000	      3.11778625	     -6.29328099	      1.30649654	      0.00000000	      0.00000000	      0.00000000	      0.00000000	      0.00000000	      0.00000000	      0.00000000	      0.00000000	      0.00000000	      0.00000000	      0.00000000	      0.00000000	      0.00000000	      0.00000000
      1.95000000	      3.71797021	      8.50796432	    -89.30763404	      0.19596388	      0.89592359	      1.87556623	     -0.58259162	     -4.25821392	     -6.83468002	     39.67297429	      0.69242403	     -9.74945431	      0.00000000	      0.00000000	     31.19102019	      6.51031638	      0.18093413	     15.13897122	      0.26422489	     -7.35710221	      0.00000000	     -0.00000000	      3.57344056	     -6.74145080	      1.04698121	     -0.00000000	     -0.00000000	      0.00000000	      0.00000000	      0.00000000	     -0.00000000	     -0.00000000	     -0.00000000	      0.00000000	      0.00000000	      0.00000000	      0.00000000	      0.00000000	      0.00000000
      1.96000000	      4.26623239	      8.55207744	    -89.33387158	      0.19742460	      0.89831780	      1.88949791	      1.52618234	     -5.27780625	     -6.68743140	     43.70357290	      0.76277124	    -11.44392197	      0.00000000	      0.00000000	     30.23128385	      7.15709792	      0.02278869	     15.11607922	      0.26382535	     -6.33372282	      0.00000000	      0.00000000	      3.71214067	     -7.28252989	      0.83494843	      0.00000000	      0.00000000	      0.00000000	      0.00000000	      0.00000000	      0.00000000	      0.00000000	      0.00000000	      0.00000000	      0.00000000	      0.00000000	      0.00000000	      0.00000000	      0.00000000
